<svg aria-hidden="true" style="position: absolute; width: 0; height: 0; overflow: hidden;" version="1.1" xmlns="http://www.w3.org/2000/svg" xmlns:xlink="http://www.w3.org/1999/xlink">
<defs>
<symbol id="icon-arrow" viewBox="0 0 32 32">
<path stroke-linejoin="round" stroke-linecap="round" stroke-miterlimit="4" stroke-width="2.6" d="M15 28l13-13M28 15l-13-13M28 15h-26"></path>
</symbol>
<symbol id="icon-calendar" viewBox="0 0 32 32">
<path stroke-linejoin="round" stroke-linecap="round" stroke-miterlimit="4" stroke-width="2.6667" d="M25.333 5.333h-18.667c-1.473 0-2.667 1.194-2.667 2.667v18.667c0 1.473 1.194 2.667 2.667 2.667h18.667c1.473 0 2.667-1.194 2.667-2.667v-18.667c0-1.473-1.194-2.667-2.667-2.667z"></path>
<path stroke-linejoin="round" stroke-linecap="round" stroke-miterlimit="4" stroke-width="2.6667" d="M21.333 2.667v5.333"></path>
<path stroke-linejoin="round" stroke-linecap="round" stroke-miterlimit="4" stroke-width="2.6667" d="M10.667 2.667v5.333"></path>
<path stroke-linejoin="round" stroke-linecap="round" stroke-miterlimit="4" stroke-width="2.6667" d="M4 13.333h24"></path>
</symbol>
<symbol id="icon-calories-1" viewBox="0 0 32 32">
<path fill="#ef8964" d="M15.998 22.291c-0.946 0.72-2.898 2.5-2.898 4.925 0 1.601 1.3 2.904 2.897 2.904s2.897-1.303 2.897-2.904c0-2.297-1.954-4.161-2.895-4.925z"></path>
<path fill="#ef8964" d="M22.79 5.57c-0.351-0.397-0.958-0.421-1.34-0.064l-4.412 4.117v-8.623c0-0.722-0.87-1.261-1.522-0.867-0.123 0.075-3.055 1.865-6.017 5.116-3.602 3.953-6.055 8.766-6.055 14.164 0 6.941 5.633 12.587 12.557 12.587-2.631 0-4.772-2.146-4.772-4.784 0-4.262 4.138-6.786 4.314-6.891 0.309-0.184 0.695-0.176 0.996 0.022 0.173 0.114 4.234 2.838 4.234 6.869 0 2.638-2.141 4.784-4.772 4.784 6.924 0 12.557-5.647 12.557-12.587 0-5.241-2.313-9.938-5.767-13.843z"></path>
</symbol>
<symbol id="icon-dumbbell" viewBox="0 0 32 32">
<path fill="#ef8964" d="M5.2 8h-2.4c-0.665 0-1.2 0.535-1.2 1.2v5.2h-1.2c-0.22 0-0.4 0.18-0.4 0.4v2.4c0 0.22 0.18 0.4 0.4 0.4h1.2v5.2c0 0.665 0.535 1.2 1.2 1.2h2.4c0.665 0 1.2-0.535 1.2-1.2v-13.6c0-0.665-0.535-1.2-1.2-1.2zM31.6 14.4h-1.2v-5.2c0-0.665-0.535-1.2-1.2-1.2h-2.4c-0.665 0-1.2 0.535-1.2 1.2v13.6c0 0.665 0.535 1.2 1.2 1.2h2.4c0.665 0 1.2-0.535 1.2-1.2v-5.2h1.2c0.22 0 0.4-0.18 0.4-0.4v-2.4c0-0.22-0.18-0.4-0.4-0.4zM22.8 4.8h-2.4c-0.665 0-1.2 0.535-1.2 1.2v8.4h-6.4v-8.4c0-0.665-0.535-1.2-1.2-1.2h-2.4c-0.665 0-1.2 0.535-1.2 1.2v20c0 0.665 0.535 1.2 1.2 1.2h2.4c0.665 0 1.2-0.535 1.2-1.2v-8.4h6.4v8.4c0 0.665 0.535 1.2 1.2 1.2h2.4c0.665 0 1.2-0.535 1.2-1.2v-20c0-0.665-0.535-1.2-1.2-1.2z"></path>
</symbol>
<symbol id="icon-bubble" viewBox="0 0 32 32">
<path fill="#ef8964" style="fill: var(--color1, #ef8964)" d="M20.793 16.346c3.778 0 6.84-3.062 6.84-6.84s-3.062-6.84-6.84-6.84c-3.778 0-6.84 3.062-6.84 6.84s3.062 6.84 6.84 6.84z"></path>
<path fill="#ef8964" style="fill: var(--color1, #ef8964)" d="M8.475 25.919c2.268 0 4.107-1.839 4.107-4.107s-1.839-4.107-4.107-4.107c-2.268 0-4.107 1.839-4.107 4.107s1.839 4.107 4.107 4.107z"></path>
<path fill="#ef8964" style="fill: var(--color1, #ef8964)" d="M22.151 29.332c1.885 0 3.413-1.528 3.413-3.413s-1.528-3.413-3.413-3.413c-1.885 0-3.413 1.528-3.413 3.413s1.528 3.413 3.413 3.413z"></path>
</symbol>
<symbol id="icon-fluent_food-24-filled" viewBox="0 0 32 32">
<path fill="#ef8964" d="M23.996 4c0.327 0 0.642 0.12 0.886 0.337s0.4 0.516 0.438 0.84l0.009 0.156v21.333c-0 0.34-0.13 0.667-0.364 0.914s-0.552 0.396-0.892 0.416c-0.339 0.020-0.673-0.090-0.934-0.308s-0.428-0.528-0.468-0.865l-0.009-0.156v-6.667h-1.333c-0.327 0-0.642-0.12-0.886-0.337s-0.4-0.516-0.438-0.84l-0.009-0.156v-8c0-2.947 2-6.667 4-6.667zM15.996 4c0.327 0 0.642 0.12 0.886 0.337s0.4 0.516 0.438 0.84l0.009 0.156v6.667c-0 1.183-0.393 2.331-1.117 3.266s-1.738 1.603-2.883 1.899v9.501c-0 0.34-0.13 0.667-0.364 0.914s-0.552 0.396-0.891 0.416c-0.339 0.020-0.673-0.090-0.934-0.308s-0.428-0.528-0.468-0.865l-0.009-0.156v-9.501c-1.099-0.284-2.079-0.912-2.798-1.791s-1.137-1.965-1.196-3.099l-0.007-0.275v-6.667c0-0.34 0.13-0.667 0.364-0.914s0.552-0.396 0.891-0.416c0.339-0.020 0.673 0.090 0.934 0.309s0.428 0.528 0.468 0.865l0.009 0.156v6.667c0 0.468 0.123 0.928 0.357 1.333s0.571 0.742 0.976 0.976v-8.976c0-0.34 0.13-0.667 0.364-0.914s0.552-0.396 0.891-0.416c0.339-0.020 0.673 0.090 0.934 0.309s0.428 0.528 0.468 0.865l0.009 0.156 0.001 8.976c0.372-0.215 0.687-0.517 0.917-0.88s0.369-0.776 0.406-1.204l0.009-0.225v-6.667c0-0.354 0.14-0.693 0.391-0.943s0.589-0.391 0.943-0.391z"></path>
</symbol>
<symbol id="icon-running" viewBox="0 0 32 32">
<path fill="#ef8964" style="fill: var(--color1, #ef8964)" d="M29.647 9.451c-0.419-0.501-1.166-0.567-1.667-0.149l-3.282 2.757-1.509-3.739c-0.054-0.14-0.135-0.258-0.229-0.362-0.308-0.686-0.844-1.275-1.582-1.617-0.32-0.146-0.652-0.224-0.982-0.262-0.073-0.038-0.139-0.088-0.222-0.114l-5.775-1.61c-0.324-0.088-0.65-0.031-0.917 0.125-0.317 0.107-0.589 0.338-0.719 0.672l-2.175 5.592c-0.236 0.608 0.066 1.294 0.676 1.534 0.607 0.236 1.294-0.068 1.532-0.678l1.837-4.722 2.63 0.731c-0.064 0.104-0.133 0.201-0.185 0.312l-3.372 7.309c-0.049 0.107-0.075 0.217-0.109 0.328l-4.098 6.871-6.859 2.294c-0.776 0.58-0.941 1.674-0.367 2.45 0.577 0.778 1.674 0.943 2.448 0.369l7.018-2.417c0.215-0.156 0.371-0.36 0.489-0.58 0.088-0.094 0.189-0.168 0.256-0.284l2.443-4.096 4.337 3.696-4.641 5.23c-0.639 0.721-0.575 1.832 0.149 2.469 0.723 0.643 1.83 0.575 2.473-0.149l5.791-6.524c0.18-0.201 0.288-0.433 0.36-0.676 0.043-0.132 0.043-0.269 0.054-0.406 0-0.069 0.026-0.132 0.021-0.196-0.016-0.478-0.21-0.943-0.601-1.274l-3.991-3.403c0.288-0.274 0.532-0.6 0.709-0.983l2.585-5.599 0.828 2.206c0.035 0.196 0.1 0.388 0.239 0.549 0.125 0.149 0.284 0.248 0.454 0.317 0.017 0.009 0.038 0.010 0.059 0.016 0.107 0.038 0.216 0.075 0.329 0.080 0.133 0.012 0.269-0.005 0.405-0.043 0.004-0.002 0.005-0.002 0.005-0.002 0.036-0.009 0.073-0.002 0.109-0.017 0.192-0.073 0.34-0.196 0.466-0.34l4.71-3.998c0.501-0.421 0.289-1.166-0.132-1.667z"></path>
<path fill="#ef8964" style="fill: var(--color1, #ef8964)" d="M23.69 6.602c1.823 0 3.301-1.478 3.301-3.301s-1.478-3.301-3.301-3.301c-1.823 0-3.301 1.478-3.301 3.301s1.478 3.301 3.301 3.301z"></path>
</symbol>
<symbol id="icon-apple" viewBox="0 0 32 32">
<path fill="#ef8964" style="fill: var(--color1, #ef8964)" d="M19.455 4.758c0.102-0.031 0.197-0.082 0.28-0.151s0.15-0.153 0.199-0.248c0.049-0.095 0.079-0.199 0.087-0.306s-0.005-0.214-0.039-0.315-0.088-0.195-0.159-0.275c-0.071-0.080-0.157-0.146-0.253-0.192s-0.201-0.073-0.308-0.078-0.214 0.011-0.314 0.048c-1.501 0.499-2.435 1.731-2.986 3.051-0.074 0.178-0.142 0.359-0.203 0.542-0.3-0.568-0.683-1.087-1.138-1.541-0.615-0.616-1.35-1.1-2.159-1.422s-1.675-0.475-2.546-0.45c-0.928 0.026-1.669 0.768-1.694 1.694-0.025 0.87 0.128 1.737 0.45 2.546s0.806 1.543 1.422 2.159l0.050 0.048c-1.344 0.291-2.559 1.007-3.464 2.042s-1.454 2.334-1.563 3.705l-0.010 0.118c-0.211 2.636 0.35 5.275 1.616 7.597l0.576 1.053c0.016 0.027 0.032 0.054 0.051 0.080l1.6 2.243c0.363 0.508 0.832 0.931 1.374 1.239s1.146 0.495 1.768 0.546c0.622 0.051 1.248-0.033 1.833-0.248s1.118-0.555 1.559-0.996c0.068-0.068 0.148-0.122 0.237-0.158s0.183-0.056 0.279-0.056c0.096 0 0.191 0.019 0.279 0.056s0.169 0.090 0.237 0.158c0.441 0.441 0.973 0.781 1.559 0.996s1.212 0.3 1.833 0.248c0.622-0.052 1.225-0.238 1.768-0.546s1.012-0.731 1.374-1.239l1.6-2.242c0.019-0.026 0.036-0.053 0.051-0.082l0.574-1.053c1.266-2.321 1.827-4.961 1.616-7.597l-0.008-0.118c-0.071-0.884-0.324-1.743-0.745-2.523s-0.998-1.465-1.697-2.010c-0.699-0.545-1.503-0.94-2.362-1.158s-1.754-0.256-2.628-0.11l-2.651 0.442c0.016-1.090 0.208-2.315 0.638-3.349 0.448-1.080 1.114-1.848 2.013-2.149h0.002zM11.055 14.358c-0.246 0.078-0.473 0.203-0.67 0.369s-0.359 0.37-0.477 0.599c-0.296 0.557-0.499 1.475-0.312 2.974 0.021 0.208-0.040 0.416-0.17 0.579s-0.319 0.269-0.526 0.295c-0.207 0.026-0.416-0.030-0.583-0.157s-0.277-0.313-0.308-0.519c-0.213-1.702-0.016-2.984 0.488-3.926 0.512-0.96 1.291-1.478 2.053-1.733 0.1-0.033 0.205-0.046 0.31-0.039s0.207 0.036 0.301 0.083c0.094 0.047 0.178 0.112 0.247 0.191s0.121 0.172 0.155 0.271c0.033 0.1 0.046 0.205 0.039 0.31s-0.036 0.207-0.083 0.301c-0.047 0.094-0.112 0.178-0.191 0.247s-0.172 0.121-0.271 0.155z"></path>
</symbol>
<symbol id="icon-gridicons_user" viewBox="0 0 32 32">
<path fill="#efede8" style="fill: var(--color1, #efede8)" opacity="0.2" d="M16 5.333c1.415 0 2.771 0.562 3.771 1.562s1.562 2.357 1.562 3.771-0.562 2.771-1.562 3.771c-1 1-2.357 1.562-3.771 1.562s-2.771-0.562-3.771-1.562c-1-1-1.562-2.357-1.562-3.771s0.562-2.771 1.562-3.771c1-1 2.357-1.562 3.771-1.562zM16 26.667c0 0 10.667 0 10.667-2.667 0-3.2-5.2-6.667-10.667-6.667s-10.667 3.467-10.667 6.667c0 2.667 10.667 2.667 10.667 2.667z"></path>
</symbol>
<symbol id="icon-icon" viewBox="0 0 96 96">
<path fill="#efa082" style="fill: var(--color2, #efa082)" d="M96 48c0 26.51-21.49 48-48 48s-48-21.49-48-48c0-26.51 21.49-48 48-48s48 21.49 48 48z"></path>
<path fill="#efede8" style="fill: var(--color1, #efede8)" d="M75.294 34.902c-0.838-1.002-2.332-1.133-3.334-0.298l-6.564 5.514-3.019-7.479c-0.107-0.281-0.27-0.516-0.458-0.724-0.617-1.372-1.688-2.551-3.164-3.233-0.641-0.291-1.303-0.447-1.965-0.523-0.146-0.076-0.278-0.177-0.444-0.229l-11.551-3.22c-0.648-0.177-1.3-0.062-1.833 0.25-0.634 0.215-1.178 0.676-1.438 1.345l-4.349 11.184c-0.471 1.216 0.132 2.589 1.352 3.067 1.213 0.471 2.589-0.135 3.064-1.355l3.674-9.444 5.261 1.463c-0.128 0.208-0.267 0.402-0.371 0.624l-6.744 14.618c-0.097 0.215-0.149 0.433-0.218 0.655l-8.196 13.741-13.717 4.588c-1.553 1.161-1.882 3.348-0.735 4.9 1.154 1.556 3.348 1.885 4.897 0.738l14.036-4.835c0.43-0.312 0.742-0.721 0.977-1.161 0.177-0.187 0.378-0.336 0.513-0.568l4.887-8.193 8.674 7.392-9.281 10.46c-1.279 1.442-1.15 3.663 0.298 4.938 1.445 1.286 3.66 1.15 4.945-0.298l11.582-13.048c0.36-0.402 0.575-0.867 0.721-1.352 0.086-0.264 0.086-0.537 0.107-0.811 0-0.138 0.052-0.263 0.042-0.392-0.031-0.956-0.419-1.885-1.202-2.547l-7.982-6.806c0.576-0.548 1.064-1.199 1.418-1.965l5.171-11.198 1.656 4.412c0.070 0.392 0.201 0.776 0.478 1.098 0.25 0.298 0.568 0.496 0.908 0.634 0.035 0.017 0.076 0.021 0.118 0.031 0.215 0.076 0.433 0.149 0.658 0.159 0.267 0.024 0.537-0.010 0.811-0.086 0.007-0.004 0.010-0.004 0.010-0.004 0.073-0.017 0.146-0.004 0.218-0.035 0.385-0.145 0.679-0.392 0.932-0.679l9.42-7.995c1.002-0.842 0.579-2.332-0.264-3.334z"></path>
<path fill="#efede8" style="fill: var(--color1, #efede8)" d="M63.383 29.204c3.646 0 6.602-2.956 6.602-6.602s-2.956-6.602-6.602-6.602c-3.646 0-6.602 2.956-6.602 6.602s2.956 6.602 6.602 6.602z"></path>
</symbol>
<symbol id="icon-Line" viewBox="0 0 87 32">
<path stroke-linejoin="round" stroke-linecap="round" stroke-miterlimit="4" stroke-width="1.7297" d="M60.717 0.865c-20.169 0.292-64.211 3.812-59.502 21.728 4.232 12.649 64.534 9.932 79.413 0.414s-5.555-19.422-34.037-15.916"></path>
</symbol>
<symbol id="icon-log-out-01" viewBox="0 0 32 32">
<path stroke-linejoin="round" stroke-linecap="round" stroke-miterlimit="4" stroke-width="2.4" d="M12 4h-1.6c-2.24 0-3.36 0-4.216 0.436-0.753 0.383-1.365 0.995-1.748 1.748-0.436 0.856-0.436 1.976-0.436 4.216v11.2c0 2.24 0 3.36 0.436 4.216 0.383 0.753 0.995 1.364 1.748 1.748 0.856 0.436 1.976 0.436 4.216 0.436h1.6"></path>
<path stroke-linejoin="round" stroke-linecap="round" stroke-miterlimit="4" stroke-width="2.4" d="M21.333 22.667l6.667-6.667M28 16l-6.667-6.667M28 16h-16"></path>
</symbol>
<symbol id="icon-log-out-01-2" viewBox="0 0 32 32">
<path fill="none" stroke="#e6533c" style="stroke: var(--color1, #e6533c)" stroke-linejoin="round" stroke-linecap="round" stroke-miterlimit="4" stroke-width="2.4" d="M12 4h-1.6c-2.24 0-3.36 0-4.216 0.436-0.753 0.383-1.365 0.995-1.748 1.748-0.436 0.856-0.436 1.976-0.436 4.216v11.2c0 2.24 0 3.36 0.436 4.216 0.383 0.753 0.995 1.364 1.748 1.748 0.856 0.436 1.976 0.436 4.216 0.436h1.6"></path>
<path fill="none" stroke="#e6533c" style="stroke: var(--color1, #e6533c)" stroke-linejoin="round" stroke-linecap="round" stroke-miterlimit="4" stroke-width="2.4" d="M21.333 22.667l6.667-6.667M28 16l-6.667-6.667M28 16h-16"></path>
</symbol>
<symbol id="icon-menu-02" viewBox="0 0 32 32">
<path stroke-linejoin="round" stroke-linecap="round" stroke-miterlimit="4" stroke-width="2.6667" d="M4 16h16M4 8h24M4 24h24"></path>
</symbol>
<symbol id="icon-Rectangle-42198" viewBox="0 0 32 32">
<path d="M16 0c8.837 0 16 7.163 16 16s-7.163 16-16 16c-8.837 0-16-7.163-16-16s7.163-16 16-16z"></path>
</symbol>
<symbol id="icon-running-stick-figure-svgrepo-com-1-1" viewBox="0 0 32 32">
<path d="M29.642 9.451c-0.419-0.501-1.166-0.567-1.667-0.149l-3.282 2.757-1.509-3.739c-0.054-0.14-0.135-0.258-0.229-0.362-0.308-0.686-0.844-1.275-1.582-1.617-0.32-0.146-0.652-0.224-0.983-0.262-0.073-0.038-0.139-0.088-0.222-0.114l-5.775-1.61c-0.324-0.088-0.65-0.031-0.917 0.125-0.317 0.107-0.589 0.338-0.719 0.672l-2.175 5.592c-0.236 0.608 0.066 1.294 0.676 1.534 0.607 0.236 1.294-0.068 1.532-0.678l1.837-4.722 2.63 0.731c-0.064 0.104-0.133 0.201-0.185 0.312l-3.372 7.309c-0.049 0.107-0.075 0.217-0.109 0.328l-4.098 6.871-6.859 2.294c-0.776 0.58-0.941 1.674-0.367 2.45 0.577 0.778 1.674 0.943 2.448 0.369l7.018-2.417c0.215-0.156 0.371-0.36 0.489-0.58 0.088-0.094 0.189-0.168 0.256-0.284l2.443-4.096 4.337 3.696-4.64 5.23c-0.639 0.721-0.575 1.832 0.149 2.469 0.723 0.643 1.83 0.575 2.473-0.149l5.791-6.524c0.18-0.201 0.288-0.433 0.36-0.676 0.043-0.132 0.043-0.269 0.054-0.406 0-0.069 0.026-0.132 0.021-0.196-0.016-0.478-0.21-0.943-0.601-1.274l-3.991-3.403c0.288-0.274 0.532-0.6 0.709-0.983l2.585-5.599 0.828 2.206c0.035 0.196 0.1 0.388 0.239 0.549 0.125 0.149 0.284 0.248 0.454 0.317 0.017 0.009 0.038 0.010 0.059 0.016 0.108 0.038 0.217 0.075 0.329 0.080 0.133 0.012 0.269-0.005 0.405-0.043 0.004-0.002 0.005-0.002 0.005-0.002 0.036-0.009 0.073-0.002 0.109-0.017 0.192-0.073 0.34-0.196 0.466-0.34l4.71-3.998c0.501-0.421 0.289-1.166-0.132-1.667z"></path>
<path d="M23.688 6.602c1.823 0 3.301-1.478 3.301-3.301s-1.478-3.301-3.301-3.301c-1.823 0-3.301 1.478-3.301 3.301s1.478 3.301 3.301 3.301z"></path>
</symbol>
<symbol id="icon-search" viewBox="0 0 32 32">
<path stroke-linejoin="round" stroke-linecap="round" stroke-miterlimit="4" stroke-width="2.6667" d="M14.667 25.333c5.891 0 10.667-4.776 10.667-10.667s-4.776-10.667-10.667-10.667c-5.891 0-10.667 4.776-10.667 10.667s4.776 10.667 10.667 10.667z"></path>
<path stroke-linejoin="round" stroke-linecap="round" stroke-miterlimit="4" stroke-width="2.6667" d="M28.001 28l-5.8-5.8"></path>
</symbol>
<symbol id="icon-settings-01" viewBox="0 0 32 32">
<path fill="none"  stroke-linejoin="round" stroke-linecap="round" stroke-miterlimit="4" stroke-width="2.2857" d="M16 20c2.209 0 4-1.791 4-4s-1.791-4-4-4c-2.209 0-4 1.791-4 4s1.791 4 4 4z"></path>
<path fill="none"  stroke-linejoin="round" stroke-linecap="round" stroke-miterlimit="4" stroke-width="2.2857" d="M24.97 19.636c-0.161 0.366-0.209 0.771-0.138 1.164s0.259 0.756 0.538 1.042l0.073 0.073c0.225 0.225 0.404 0.492 0.526 0.787s0.185 0.61 0.185 0.928c0 0.319-0.063 0.634-0.185 0.928s-0.301 0.562-0.526 0.787c-0.225 0.225-0.493 0.404-0.787 0.526s-0.61 0.185-0.928 0.185c-0.319 0-0.634-0.063-0.928-0.185s-0.562-0.301-0.787-0.526l-0.073-0.073c-0.286-0.279-0.648-0.467-1.042-0.538s-0.799-0.023-1.164 0.138c-0.358 0.154-0.664 0.409-0.88 0.734s-0.331 0.706-0.333 1.096v0.206c0 0.643-0.255 1.26-0.71 1.714s-1.071 0.71-1.714 0.71c-0.643 0-1.26-0.255-1.714-0.71s-0.71-1.071-0.71-1.714v-0.109c-0.009-0.401-0.139-0.79-0.373-1.117s-0.56-0.575-0.936-0.714c-0.366-0.161-0.771-0.209-1.164-0.138s-0.756 0.259-1.042 0.538l-0.073 0.073c-0.225 0.225-0.492 0.404-0.787 0.526s-0.61 0.185-0.928 0.185-0.634-0.063-0.928-0.185c-0.294-0.122-0.562-0.301-0.787-0.526s-0.404-0.493-0.526-0.787-0.185-0.61-0.185-0.928c0-0.319 0.063-0.634 0.185-0.928s0.301-0.562 0.526-0.787l0.073-0.073c0.279-0.286 0.467-0.648 0.538-1.042s0.023-0.799-0.138-1.164c-0.154-0.358-0.409-0.664-0.734-0.88s-0.706-0.331-1.096-0.332h-0.206c-0.643 0-1.26-0.255-1.714-0.71s-0.71-1.071-0.71-1.714c0-0.643 0.255-1.26 0.71-1.714s1.071-0.71 1.714-0.71h0.109c0.401-0.009 0.79-0.139 1.117-0.373s0.575-0.56 0.714-0.936c0.161-0.366 0.21-0.771 0.138-1.164s-0.259-0.756-0.538-1.042l-0.073-0.073c-0.225-0.225-0.404-0.492-0.526-0.787s-0.185-0.61-0.185-0.928c0-0.319 0.063-0.634 0.185-0.928s0.301-0.562 0.526-0.787c0.225-0.225 0.492-0.404 0.787-0.526s0.61-0.185 0.928-0.185c0.319 0 0.634 0.063 0.928 0.185s0.562 0.301 0.787 0.526l0.073 0.073c0.286 0.279 0.649 0.467 1.042 0.538s0.799 0.023 1.164-0.138h0.097c0.358-0.154 0.664-0.409 0.88-0.734s0.331-0.706 0.333-1.096v-0.206c0-0.643 0.255-1.26 0.71-1.714s1.071-0.71 1.714-0.71c0.643 0 1.26 0.255 1.714 0.71s0.71 1.071 0.71 1.714v0.109c0.002 0.39 0.117 0.771 0.332 1.096s0.521 0.58 0.88 0.734c0.366 0.161 0.771 0.209 1.164 0.138s0.756-0.259 1.042-0.538l0.073-0.073c0.225-0.225 0.493-0.404 0.787-0.526s0.61-0.185 0.928-0.185c0.319 0 0.634 0.063 0.928 0.185s0.562 0.301 0.787 0.526c0.226 0.225 0.404 0.492 0.526 0.787s0.185 0.61 0.185 0.928-0.063 0.634-0.185 0.928c-0.122 0.294-0.301 0.562-0.526 0.787l-0.073 0.073c-0.279 0.286-0.467 0.649-0.538 1.042s-0.023 0.799 0.138 1.164v0.097c0.154 0.358 0.409 0.664 0.734 0.88s0.706 0.331 1.096 0.332h0.206c0.643 0 1.26 0.255 1.714 0.71s0.71 1.071 0.71 1.714c0 0.643-0.255 1.26-0.71 1.714s-1.071 0.71-1.714 0.71h-0.109c-0.39 0.002-0.771 0.117-1.096 0.332s-0.58 0.521-0.734 0.88z"></path>
</symbol>
<symbol id="icon-tabler_exclamation-mark" viewBox="0 0 32 32">
<path fill="none" stroke="#efede8" style="stroke: var(--color1, #efede8)" stroke-linejoin="round" stroke-linecap="round" stroke-miterlimit="4" stroke-width="2.6667" d="M16 25.333v0.013M16 20v-13.333"></path>
</symbol>
<symbol id="icon-trash-03" viewBox="0 0 32 32">
<path fill="none" stroke="#ef8964" style="stroke: var(--color1, #ef8964)" stroke-linejoin="round" stroke-linecap="round" stroke-miterlimit="4" stroke-width="2.4" d="M12 4h8M13.333 14v6.667M18.667 14v6.667"></path>
<path fill="none" stroke="#ef8964" style="stroke: var(--color1, #ef8964)" stroke-linejoin="round" stroke-linecap="round" stroke-miterlimit="4" stroke-width="2.4" d="M4 8h24M25.333 8l-0.935 14.026c-0.14 2.104-0.21 3.156-0.665 3.954-0.4 0.702-1.004 1.267-1.731 1.62-0.826 0.4-1.881 0.4-3.99 0.4h-4.025c-2.109 0-3.163 0-3.99-0.4-0.727-0.352-1.331-0.917-1.731-1.62-0.455-0.798-0.525-1.85-0.665-3.954l-0.935-14.026"></path>
</symbol>
<symbol id="icon-Vector-1" viewBox="0 0 28 32">
<path d="M18.316 1.948c0.128-0.039 0.247-0.103 0.35-0.188s0.187-0.191 0.249-0.31c0.061-0.119 0.098-0.249 0.109-0.382s-0.006-0.267-0.049-0.394c-0.042-0.127-0.11-0.244-0.198-0.344s-0.196-0.182-0.317-0.24c-0.12-0.058-0.251-0.091-0.385-0.098s-0.267 0.014-0.393 0.060c-1.876 0.624-3.044 2.164-3.732 3.814-0.092 0.223-0.177 0.449-0.254 0.678-0.375-0.71-0.854-1.359-1.422-1.926-0.769-0.77-1.687-1.375-2.698-1.778s-2.094-0.594-3.182-0.562c-1.16 0.032-2.086 0.96-2.118 2.118-0.032 1.088 0.16 2.171 0.562 3.182s1.007 1.929 1.778 2.698l0.062 0.060c-1.68 0.364-3.198 1.259-4.33 2.553s-1.817 2.918-1.954 4.631l-0.012 0.148c-0.264 3.294 0.438 6.594 2.020 9.496l0.72 1.316c0.020 0.034 0.040 0.068 0.064 0.1l2 2.804c0.453 0.635 1.039 1.163 1.718 1.549s1.432 0.618 2.21 0.683c0.777 0.064 1.559-0.042 2.292-0.31s1.397-0.693 1.949-1.245c0.085-0.085 0.185-0.152 0.296-0.198s0.229-0.069 0.349-0.069c0.12 0 0.238 0.024 0.349 0.069s0.211 0.113 0.296 0.198c0.551 0.552 1.217 0.977 1.949 1.245s1.514 0.374 2.292 0.31c0.777-0.064 1.531-0.297 2.21-0.683s1.264-0.914 1.718-1.549l2-2.802c0.023-0.033 0.045-0.067 0.064-0.102l0.718-1.316c1.582-2.902 2.284-6.202 2.020-9.496l-0.010-0.148c-0.088-1.104-0.405-2.178-0.931-3.154s-1.247-1.831-2.121-2.513-1.879-1.175-2.953-1.448c-1.074-0.273-2.193-0.32-3.286-0.137l-3.314 0.552c0.020-1.362 0.26-2.894 0.798-4.186 0.56-1.35 1.392-2.31 2.516-2.686h0.002zM7.816 13.948c-0.307 0.097-0.592 0.254-0.838 0.462s-0.449 0.462-0.596 0.748c-0.37 0.696-0.624 1.844-0.39 3.718 0.026 0.26-0.050 0.52-0.213 0.724s-0.399 0.337-0.658 0.369c-0.259 0.032-0.521-0.038-0.729-0.196s-0.346-0.391-0.385-0.649c-0.266-2.128-0.020-3.73 0.61-4.908 0.64-1.2 1.614-1.848 2.566-2.166 0.125-0.041 0.256-0.058 0.387-0.049s0.259 0.044 0.376 0.103c0.117 0.059 0.222 0.14 0.308 0.239s0.152 0.214 0.193 0.339c0.041 0.125 0.058 0.256 0.049 0.387s-0.044 0.259-0.103 0.376c-0.059 0.117-0.14 0.222-0.239 0.308s-0.214 0.152-0.339 0.193z"></path>
</symbol>
<symbol id="icon-Vector" viewBox="0 0 89 32">
<path d="M86.33 13.714c1.263 0 2.286 1.023 2.286 2.286s-1.023 2.286-2.286 2.286h-1.582c-1.359 0-2.462 1.102-2.462 2.462v4.22c0 1.359-1.102 2.462-2.462 2.462h-1.583c-1.262 0-2.286 1.023-2.286 2.286s-1.023 2.286-2.286 2.286h-4.747c-1.359 0-2.462-1.102-2.462-2.462v-8.791c0-1.359-1.102-2.462-2.462-2.462h-39.385c-1.359 0-2.462 1.102-2.462 2.462v8.791c0 1.36-1.102 2.462-2.462 2.462h-4.747c-1.262 0-2.286-1.023-2.286-2.286s-1.023-2.286-2.286-2.286h-1.582c-1.359 0-2.462-1.102-2.462-2.462v-4.22c0-1.359-1.102-2.462-2.462-2.462h-1.582c-1.262 0-2.286-1.023-2.286-2.286s1.023-2.286 2.286-2.286h1.582c1.359 0 2.462-1.102 2.462-2.462v-4.22c0-1.359 1.102-2.462 2.462-2.462h1.582c1.262 0 2.286-1.023 2.286-2.286s1.023-2.286 2.286-2.286h4.747c1.359 0 2.462 1.102 2.462 2.462v8.791c0 1.359 1.102 2.462 2.462 2.462h39.385c1.359 0 2.462-1.102 2.462-2.462v-8.791c0-1.359 1.102-2.462 2.462-2.462h4.747c1.262 0 2.286 1.023 2.286 2.286s1.023 2.286 2.286 2.286h1.583c1.359 0 2.462 1.102 2.462 2.462v4.22c0 1.359 1.102 2.462 2.462 2.462h1.582z"></path>
</symbol>
<symbol id="icon-check-mark" viewBox="0 0 33 32">
<path d="M11.238 0.428l4.69 1.356c0.339 0.098 0.699 0.099 1.038 0.002l4.83-1.375c0.845-0.241 1.744 0.136 2.166 0.906l2.506 4.577c0.168 0.307 0.419 0.561 0.723 0.734l3.986 2.258c0.771 0.437 1.133 1.352 0.869 2.198l-1.381 4.428c-0.113 0.363-0.114 0.752-0.002 1.115l1.394 4.521c0.258 0.836-0.094 1.739-0.849 2.18l-4.443 2.597c-0.303 0.177-0.551 0.436-0.715 0.746l-2.114 4.004c-0.409 0.775-1.298 1.165-2.145 0.941l-4.863-1.284c-0.317-0.084-0.651-0.083-0.968 0.002l-4.715 1.264c-0.867 0.232-1.777-0.179-2.175-0.983l-2.106-4.256c-0.177-0.357-0.462-0.649-0.816-0.834l-4.304-2.247c-0.786-0.411-1.179-1.314-0.943-2.169l1.255-4.548c0.089-0.322 0.090-0.662 0.005-0.985l-1.288-4.843c-0.221-0.833 0.151-1.71 0.904-2.129l4.422-2.46c0.322-0.179 0.584-0.448 0.754-0.775l2.090-4.007c0.414-0.794 1.331-1.187 2.192-0.938z"></path>
<path stroke-linejoin="round" stroke-linecap="round" stroke-miterlimit="4" stroke-width="2" d="M16.5 10.75v10.5"></path>
<path stroke-linejoin="round" stroke-linecap="round" stroke-miterlimit="4" stroke-width="2" d="M11.25 16h10.5"></path>
</symbol>
<symbol id="icon-polygon1" viewBox="0 0 24 32">
<path fill="#efede8" style="fill: var(--color1, #efede8)" d="M24 16l-24 13.857v-27.713l24 13.856z"></path>
</symbol>
<symbol id="icon-check-mark-1" viewBox="0 0 33 32">
<path fill="#e6533c" style="fill: var(--color1, #e6533c)" d="M11.238 0.428l4.69 1.356c0.339 0.098 0.699 0.099 1.038 0.002l4.83-1.375c0.845-0.241 1.744 0.136 2.166 0.906l2.506 4.577c0.168 0.307 0.419 0.561 0.723 0.734l3.986 2.258c0.771 0.437 1.133 1.352 0.869 2.198l-1.381 4.428c-0.113 0.363-0.114 0.752-0.002 1.115l1.394 4.521c0.258 0.836-0.094 1.739-0.849 2.18l-4.443 2.597c-0.303 0.177-0.551 0.436-0.715 0.746l-2.114 4.004c-0.409 0.775-1.298 1.165-2.145 0.941l-4.863-1.284c-0.317-0.084-0.651-0.083-0.968 0.002l-4.715 1.264c-0.867 0.232-1.777-0.179-2.175-0.983l-2.106-4.256c-0.177-0.357-0.462-0.649-0.816-0.834l-4.304-2.247c-0.786-0.411-1.179-1.314-0.943-2.169l1.255-4.548c0.089-0.322 0.090-0.662 0.005-0.985l-1.288-4.843c-0.221-0.833 0.151-1.71 0.904-2.129l4.422-2.46c0.322-0.179 0.584-0.448 0.754-0.775l2.090-4.007c0.414-0.794 1.331-1.187 2.192-0.938z"></path>
<path fill="none" stroke="#efede8" style="stroke: var(--color2, #efede8)" stroke-linejoin="round" stroke-linecap="round" stroke-miterlimit="4" stroke-width="2" d="M16.5 10.75v10.5"></path>
<path fill="none" stroke="#efede8" style="stroke: var(--color2, #efede8)" stroke-linejoin="round" stroke-linecap="round" stroke-miterlimit="4" stroke-width="2" d="M11.25 16h10.5"></path>
</symbol>
<symbol id="icon-dumbbell" viewBox="0 0 32 32">
<path d="M5.2 8h-2.4c-0.665 0-1.2 0.535-1.2 1.2v5.2h-1.2c-0.22 0-0.4 0.18-0.4 0.4v2.4c0 0.22 0.18 0.4 0.4 0.4h1.2v5.2c0 0.665 0.535 1.2 1.2 1.2h2.4c0.665 0 1.2-0.535 1.2-1.2v-13.6c0-0.665-0.535-1.2-1.2-1.2zM31.6 14.4h-1.2v-5.2c0-0.665-0.535-1.2-1.2-1.2h-2.4c-0.665 0-1.2 0.535-1.2 1.2v13.6c0 0.665 0.535 1.2 1.2 1.2h2.4c0.665 0 1.2-0.535 1.2-1.2v-5.2h1.2c0.22 0 0.4-0.18 0.4-0.4v-2.4c0-0.22-0.18-0.4-0.4-0.4zM22.8 4.8h-2.4c-0.665 0-1.2 0.535-1.2 1.2v8.4h-6.4v-8.4c0-0.665-0.535-1.2-1.2-1.2h-2.4c-0.665 0-1.2 0.535-1.2 1.2v20c0 0.665 0.535 1.2 1.2 1.2h2.4c0.665 0 1.2-0.535 1.2-1.2v-8.4h6.4v8.4c0 0.665 0.535 1.2 1.2 1.2h2.4c0.665 0 1.2-0.535 1.2-1.2v-20c0-0.665-0.535-1.2-1.2-1.2z"></path>
</symbol>
<symbol id="icon-Ellipse-1" viewBox="0 0 32 32">
<path d="M32 16c0 8.837-7.163 16-16 16s-16-7.163-16-16c0-8.837 7.163-16 16-16s16 7.163 16 16z"></path>
</symbol>
<symbol id="icon-x" viewBox="0 0 32 32">
<path fill="none"  stroke-linejoin="round" stroke-linecap="round" stroke-miterlimit="4" stroke-width="2" d="M24 8l-16 16M8 8l16 16"></path>
</symbol>
<symbol id="icon-clear" viewBox="0 0 96 96">
<path fill="none" stroke="#e6533c" style="stroke: var(--color3, #e6533c)" stroke-linejoin="round" stroke-linecap="round" stroke-miterlimit="4" stroke-width="10.6667" d="M72 24l-48 48"></path>
<path fill="none" stroke="#e6533c" style="stroke: var(--color3, #e6533c)" stroke-linejoin="round" stroke-linecap="round" stroke-miterlimit="4" stroke-width="10.6667" d="M24 24l48 48"></path>
</symbol>
<symbol id="checkbox-circle" viewBox="0 0 32 32">
<path  d="M16 29.333c-7.364 0-13.333-5.969-13.333-13.333s5.969-13.333 13.333-13.333 13.333 5.969 13.333 13.333c0 7.364-5.969 13.333-13.333 13.333zM14.459 21.98l9.427-9.428-1.885-1.885-7.541 7.543-3.772-3.772-1.885 1.885 5.657 5.657z"></path>
</symbol>
<symbol id="eye-off" viewBox="0 0 32 32">
<path fill="none" stroke="#efede8" style="stroke: var(--color2, #efede8)" stroke-linejoin="round" stroke-linecap="round" stroke-miterlimit="4" stroke-width="2.88" d="M23.92 23.92c-2.279 1.737-5.055 2.7-7.92 2.747-9.333 0-14.667-10.667-14.667-10.667 1.659-3.091 3.959-5.791 6.747-7.92M13.2 5.653c0.918-0.215 1.857-0.322 2.8-0.32 9.333 0 14.667 10.667 14.667 10.667-0.809 1.514-1.775 2.94-2.88 4.253M18.827 18.827c-0.366 0.393-0.808 0.708-1.299 0.927s-1.020 0.336-1.557 0.346c-0.537 0.009-1.071-0.089-1.569-0.291s-0.95-0.501-1.33-0.88c-0.38-0.38-0.679-0.832-0.88-1.33s-0.3-1.032-0.29-1.569c0.009-0.537 0.127-1.067 0.346-1.558s0.534-0.932 0.927-1.298"></path>
<path fill="none" stroke="#efede8" style="stroke: var(--color2, #efede8)" stroke-linejoin="round" stroke-linecap="round" stroke-miterlimit="4" stroke-width="2.88" d="M1.333 1.333l29.333 29.333"></path>
</symbol>
<symbol id="eye" viewBox="0 0 32 32">
<path fill="none" stroke="#efede8" style="stroke: var(--color2, #efede8)" stroke-linejoin="round" stroke-linecap="round" stroke-miterlimit="4" stroke-width="2.88" d="M1.333 16c0 0 5.333-10.667 14.667-10.667s14.667 10.667 14.667 10.667-5.333 10.667-14.667 10.667c-9.333 0-14.667-10.667-14.667-10.667z"></path>
<path fill="none" stroke="#efede8" style="stroke: var(--color2, #efede8)" stroke-linejoin="round" stroke-linecap="round" stroke-miterlimit="4" stroke-width="2.88" d="M16 20c2.209 0 4-1.791 4-4s-1.791-4-4-4c-2.209 0-4 1.791-4 4s1.791 4 4 4z"></path>
</symbol>
<symbol id="icon-checkbox-circle" viewBox="0 0 32 32">
<path fill="#d80027" style="fill: var(--color1, #d80027)" d="M16 29.333c-7.364 0-13.333-5.969-13.333-13.333s5.969-13.333 13.333-13.333c7.364 0 13.333 5.969 13.333 13.333s-5.969 13.333-13.333 13.333zM14.459 21.98l9.427-9.428-1.885-1.885-7.541 7.543-3.772-3.772-1.885 1.885 5.657 5.657z"></path>
</symbol>
</defs>
</svg>